PathFileType	4	(X/Y/Z)	Run_300 02
DataRate	CameraRate	NumFrames	NumMarkers	Units	OrigDataRate	OrigDataStartFrame	OrigNumFrames
100	100	4	42	mm	100	294	128
Frame#	Time	LASI			RASI			LPSI			RTH1			RTH2			RTH3			LTH1			LTH2			LTH3			RTB1			RTB2			RTB3			LTB1			LTB2			LTB3			RCAL			RTOE			RMT5			LCAL			LTOE			LMT5			LACR			RACR			CLAV			C7			RUA1			RUA2			RUA3			RLEL			RMEL			LUA1			LUA2			LUA3			LLEL			RFAsuperior			RFAradius			RFAulna			LFAsuperior			LFAradius			LFAulna			LMEL			RPSI		
		X1	Y1	Z1	X2	Y2	Z2	X3	Y3	Z3	X4	Y4	Z4	X5	Y5	Z5	X6	Y6	Z6	X7	Y7	Z7	X8	Y8	Z8	X9	Y9	Z9	X10	Y10	Z10	X11	Y11	Z11	X12	Y12	Z12	X13	Y13	Z13	X14	Y14	Z14	X15	Y15	Z15	X16	Y16	Z16	X17	Y17	Z17	X18	Y18	Z18	X19	Y19	Z19	X20	Y20	Z20	X21	Y21	Z21	X22	Y22	Z22	X23	Y23	Z23	X24	Y24	Z24	X25	Y25	Z25	X26	Y26	Z26	X27	Y27	Z27	X28	Y28	Z28	X29	Y29	Z29	X30	Y30	Z30	X31	Y31	Z31	X32	Y32	Z32	X33	Y33	Z33	X34	Y34	Z34	X35	Y35	Z35	X36	Y36	Z36	X37	Y37	Z37	X38	Y38	Z38	X39	Y39	Z39	X40	Y40	Z40	X41	Y41	Z41	X42	Y42	Z42	

294	  2.940000	1248.844123	973.630620	-477.387242	1240.793344	989.198002	-218.853515	1076.441396	1029.238378	-407.695569	1225.277804	832.830591	-162.255683	1289.896264	747.387502	-173.480361	1273.575347	605.688241	-199.898096	1175.858633	813.589259	-527.510272	1230.729797	684.324987	-505.759336	1153.249623	570.786691	-499.459603	1336.878087	350.952481	-281.386224	1276.806046	254.453994	-238.776860	1280.077908	185.190874	-307.734016	1002.198665	398.108432	-426.631673	939.609800	428.517774	-469.825825	862.847154	406.151574	-416.975331	1141.814017	102.188630	-304.776563	1375.969161	 77.785674	-323.027508	1360.164285	 55.057628	-246.488307	740.944009	516.781598	-400.228267	701.003887	277.817229	-380.327547	680.929542	306.410206	-465.742151	1275.000614	1504.870710	-488.639694	1253.820089	1453.807439	-141.926596	1308.951986	1420.026022	-287.191132	1204.278470	1520.264157	-317.286462	1179.261430	1325.422325	-67.472769	1109.804702	1327.664144	-67.033477	1113.431163	1254.568711	-54.641938	1067.504516	1188.236121	-37.581213	1031.450138	1196.280067	-123.992240	1203.497412	1407.300852	-572.400355	1115.628023	1376.743408	-564.521609	1137.849829	1300.201078	-602.804441	1105.608356	1240.436188	-623.056146	1150.203309	1162.548186	-53.536773	1295.146552	1131.230588	-140.853321	1270.537685	1065.823435	-123.093628	1175.525367	1187.556719	-600.641255	1309.208620	1133.735150	-490.038664	1285.228021	1072.382798	-519.791343	1061.025682	1234.521257	-542.132603	1070.034315	1032.562538	-316.752788	
295	  2.950000	1244.380759	967.750582	-478.740405	1239.489463	984.199860	-218.983941	1073.137649	1022.709180	-407.552654	1223.536189	827.329381	-161.973408	1286.584717	740.445538	-172.944716	1269.649608	599.216800	-200.914989	1174.779942	808.125196	-528.301845	1235.902842	681.412379	-508.390921	1164.037499	565.132043	-501.351984	1324.050827	344.880130	-283.838562	1259.049970	251.562374	-239.806207	1256.318388	182.534377	-309.135902	1019.609350	395.346828	-427.296865	957.934286	425.649916	-471.557122	880.835641	405.562253	-418.382046	1113.011287	103.794921	-305.591781	1347.079174	 75.693843	-323.815078	1330.914352	 54.679332	-246.697333	757.903530	518.498670	-404.224480	719.675696	279.584843	-380.635778	702.038969	306.226591	-467.128367	1271.527300	1497.179635	-489.220182	1255.767771	1444.429768	-140.499352	1308.850560	1412.275885	-287.827084	1204.742698	1514.603528	-315.366920	1186.392204	1309.925086	-68.555448	1117.238409	1310.656178	-62.587203	1123.116977	1236.609898	-55.313965	1080.242604	1169.495986	-36.183082	1041.251592	1176.784490	-121.104662	1196.381346	1398.977214	-570.960075	1107.629464	1369.482853	-559.695757	1127.833676	1292.335624	-598.074030	1094.203434	1233.520976	-618.778530	1163.163822	1144.583289	-54.032320	1306.078751	1113.754330	-142.756410	1281.251766	1048.154005	-123.981272	1163.027280	1176.976941	-599.535106	1297.030537	1112.112002	-497.205229	1269.015703	1053.309397	-529.262656	1052.777226	1226.988737	-536.352717	1067.352631	1026.604158	-316.677982	
296	  2.960000	1239.728880	962.995988	-481.020673	1238.932911	980.118136	-219.981448	1070.029630	1018.031767	-406.508714	1222.164280	821.767082	-162.514931	1282.738603	733.250477	-173.440699	1263.144822	591.746475	-202.243248	1172.934362	804.551756	-529.139379	1242.086327	679.882330	-510.756844	1175.954856	561.715417	-504.175533	1308.649559	337.632634	-284.890267	1238.425702	247.983977	-240.070267	1231.278382	179.460959	-309.546082	1037.896387	393.093913	-428.611789	976.946303	423.140956	-473.648672	899.621532	404.102703	-420.171678	1083.765331	105.078630	-305.794667	1317.782373	 74.403068	-323.968585	1301.237625	 53.961580	-246.570152	774.426497	518.046823	-408.545327	740.693919	279.010304	-380.139180	724.279999	303.188811	-467.480586	1267.116904	1491.170449	-489.510762	1258.331406	1436.624322	-139.739364	1308.378442	1405.999865	-288.779702	1204.713796	1510.033092	-313.668727	1194.147347	1297.590808	-70.678713	1125.277569	1296.821459	-60.651694	1132.938473	1222.396512	-56.407162	1093.440177	1153.714394	-36.491962	1050.431531	1160.053319	-119.494066	1189.124227	1393.026364	-569.437528	1099.761143	1364.413695	-554.450736	1117.618305	1287.261141	-594.032964	1082.904760	1228.776578	-614.888912	1177.178045	1131.452227	-57.127697	1317.682839	1100.053591	-145.735864	1292.607383	1034.159225	-126.098596	1151.277072	1169.609479	-598.367791	1283.643957	1093.706388	-503.842518	1251.822065	1037.839788	-538.227875	1044.168731	1221.221023	-531.199840	1065.469673	1022.428533	-315.349839	
297	  2.970000	1235.564005	959.587392	-483.327714	1238.735704	976.569692	-221.303845	1066.997538	1014.987257	-404.693946	1220.602048	816.699476	-163.390742	1278.586617	726.485076	-174.102423	1254.898038	584.537939	-203.461167	1170.265844	801.948270	-529.970032	1248.992754	679.720215	-512.922732	1188.950679	559.921178	-507.616854	1291.310164	330.152984	-284.942897	1216.353323	244.587533	-240.002728	1205.586775	176.737163	-309.358279	1056.848869	391.451253	-430.579059	996.222116	421.190851	-475.800090	918.860582	401.860538	-422.259165	1054.378022	106.368402	-305.446383	1288.227296	 73.460058	-324.021179	1271.396680	 53.482311	-246.327040	790.394996	515.321719	-412.353641	763.760208	275.995027	-379.497512	747.293571	297.854468	-467.418610	1261.527282	1487.056641	-489.699357	1261.844355	1430.549972	-139.618752	1307.854447	1401.373492	-289.961999	1204.068494	1506.167976	-312.238626	1202.055152	1288.696321	-73.157491	1133.220195	1286.330401	-61.184419	1142.379987	1212.119559	-57.813998	1105.972991	1141.877956	-38.186001	1058.296314	1147.399394	-119.064640	1181.089800	1389.635547	-567.843720	1091.500074	1361.824599	-549.127128	1106.902670	1285.241349	-590.679876	1071.324985	1226.998259	-611.617327	1190.702899	1122.879046	-61.792373	1329.117280	1091.735812	-149.603196	1304.159446	1025.309562	-130.129220	1139.406581	1165.728665	-597.800054	1269.429488	1080.043373	-510.132514	1233.949444	1027.126524	-546.170141	1034.747368	1218.045973	-527.074710	1064.373867	1019.740533	-313.125708	
